<mxfile host="app.diagrams.net" agent="Mozilla/5.0 (Windows NT 10.0; Win64; x64) AppleWebKit/537.36 (KHTML, like Gecko) Chrome/131.0.0.0 Safari/537.36" version="24.9.0">
  <diagram id="C5RBs43oDa-KdzZeNtuy" name="Page-1">
    <mxGraphModel dx="1050" dy="530" grid="1" gridSize="10" guides="1" tooltips="1" connect="1" arrows="1" fold="1" page="1" pageScale="1" pageWidth="827" pageHeight="1169" math="0" shadow="0">
      <root>
        <mxCell id="WIyWlLk6GJQsqaUBKTNV-0" />
        <mxCell id="WIyWlLk6GJQsqaUBKTNV-1" parent="WIyWlLk6GJQsqaUBKTNV-0" />
        <mxCell id="6gv_Ad_W1AmOkQpmVhaD-6" style="edgeStyle=orthogonalEdgeStyle;rounded=0;orthogonalLoop=1;jettySize=auto;html=1;exitX=0.5;exitY=1;exitDx=0;exitDy=0;entryX=0.5;entryY=0;entryDx=0;entryDy=0;" edge="1" parent="WIyWlLk6GJQsqaUBKTNV-1" source="6gv_Ad_W1AmOkQpmVhaD-1" target="6gv_Ad_W1AmOkQpmVhaD-4">
          <mxGeometry relative="1" as="geometry" />
        </mxCell>
        <mxCell id="6gv_Ad_W1AmOkQpmVhaD-1" value="Başla" style="ellipse;whiteSpace=wrap;html=1;" vertex="1" parent="WIyWlLk6GJQsqaUBKTNV-1">
          <mxGeometry x="120" y="50" width="120" height="60" as="geometry" />
        </mxCell>
        <mxCell id="6gv_Ad_W1AmOkQpmVhaD-4" value="1. değişken x&lt;div&gt;2.değişken y&lt;/div&gt;" style="shape=document;whiteSpace=wrap;html=1;boundedLbl=1;" vertex="1" parent="WIyWlLk6GJQsqaUBKTNV-1">
          <mxGeometry x="125" y="160" width="110" height="50" as="geometry" />
        </mxCell>
        <mxCell id="6gv_Ad_W1AmOkQpmVhaD-5" value="x=55&lt;div&gt;y=65&lt;/div&gt;" style="shape=parallelogram;perimeter=parallelogramPerimeter;whiteSpace=wrap;html=1;fixedSize=1;" vertex="1" parent="WIyWlLk6GJQsqaUBKTNV-1">
          <mxGeometry x="110" y="250" width="120" height="60" as="geometry" />
        </mxCell>
        <mxCell id="6gv_Ad_W1AmOkQpmVhaD-7" style="edgeStyle=orthogonalEdgeStyle;rounded=0;orthogonalLoop=1;jettySize=auto;html=1;entryX=0.58;entryY=-0.067;entryDx=0;entryDy=0;entryPerimeter=0;" edge="1" parent="WIyWlLk6GJQsqaUBKTNV-1" source="6gv_Ad_W1AmOkQpmVhaD-4" target="6gv_Ad_W1AmOkQpmVhaD-5">
          <mxGeometry relative="1" as="geometry" />
        </mxCell>
        <mxCell id="6gv_Ad_W1AmOkQpmVhaD-12" style="edgeStyle=orthogonalEdgeStyle;rounded=0;orthogonalLoop=1;jettySize=auto;html=1;exitX=1;exitY=0.5;exitDx=0;exitDy=0;entryX=0;entryY=0.5;entryDx=0;entryDy=0;" edge="1" parent="WIyWlLk6GJQsqaUBKTNV-1" source="6gv_Ad_W1AmOkQpmVhaD-9" target="6gv_Ad_W1AmOkQpmVhaD-11">
          <mxGeometry relative="1" as="geometry" />
        </mxCell>
        <mxCell id="6gv_Ad_W1AmOkQpmVhaD-9" value="Ort=(x+y)/2" style="rounded=0;whiteSpace=wrap;html=1;" vertex="1" parent="WIyWlLk6GJQsqaUBKTNV-1">
          <mxGeometry x="110" y="360" width="120" height="60" as="geometry" />
        </mxCell>
        <mxCell id="6gv_Ad_W1AmOkQpmVhaD-10" style="edgeStyle=orthogonalEdgeStyle;rounded=0;orthogonalLoop=1;jettySize=auto;html=1;exitX=0.5;exitY=1;exitDx=0;exitDy=0;entryX=0.45;entryY=-0.007;entryDx=0;entryDy=0;entryPerimeter=0;" edge="1" parent="WIyWlLk6GJQsqaUBKTNV-1" source="6gv_Ad_W1AmOkQpmVhaD-5" target="6gv_Ad_W1AmOkQpmVhaD-9">
          <mxGeometry relative="1" as="geometry" />
        </mxCell>
        <mxCell id="6gv_Ad_W1AmOkQpmVhaD-14" style="edgeStyle=orthogonalEdgeStyle;rounded=0;orthogonalLoop=1;jettySize=auto;html=1;exitX=1;exitY=0.5;exitDx=0;exitDy=0;entryX=0;entryY=0.5;entryDx=0;entryDy=0;" edge="1" parent="WIyWlLk6GJQsqaUBKTNV-1" source="6gv_Ad_W1AmOkQpmVhaD-11" target="6gv_Ad_W1AmOkQpmVhaD-13">
          <mxGeometry relative="1" as="geometry" />
        </mxCell>
        <mxCell id="6gv_Ad_W1AmOkQpmVhaD-18" style="edgeStyle=orthogonalEdgeStyle;rounded=0;orthogonalLoop=1;jettySize=auto;html=1;exitX=0.5;exitY=0;exitDx=0;exitDy=0;entryX=0;entryY=0.5;entryDx=0;entryDy=0;" edge="1" parent="WIyWlLk6GJQsqaUBKTNV-1" source="6gv_Ad_W1AmOkQpmVhaD-11" target="6gv_Ad_W1AmOkQpmVhaD-17">
          <mxGeometry relative="1" as="geometry" />
        </mxCell>
        <mxCell id="6gv_Ad_W1AmOkQpmVhaD-11" value="Ort&amp;gt;=55 ?" style="rhombus;whiteSpace=wrap;html=1;" vertex="1" parent="WIyWlLk6GJQsqaUBKTNV-1">
          <mxGeometry x="310" y="350" width="80" height="80" as="geometry" />
        </mxCell>
        <mxCell id="6gv_Ad_W1AmOkQpmVhaD-16" style="edgeStyle=orthogonalEdgeStyle;rounded=0;orthogonalLoop=1;jettySize=auto;html=1;exitX=1;exitY=0.5;exitDx=0;exitDy=0;entryX=0;entryY=0.5;entryDx=0;entryDy=0;" edge="1" parent="WIyWlLk6GJQsqaUBKTNV-1" source="6gv_Ad_W1AmOkQpmVhaD-13" target="6gv_Ad_W1AmOkQpmVhaD-15">
          <mxGeometry relative="1" as="geometry" />
        </mxCell>
        <mxCell id="6gv_Ad_W1AmOkQpmVhaD-13" value="Geçtiniz tebrikler" style="shape=document;whiteSpace=wrap;html=1;boundedLbl=1;" vertex="1" parent="WIyWlLk6GJQsqaUBKTNV-1">
          <mxGeometry x="450" y="360" width="90" height="60" as="geometry" />
        </mxCell>
        <mxCell id="6gv_Ad_W1AmOkQpmVhaD-15" value="Bitir" style="ellipse;whiteSpace=wrap;html=1;" vertex="1" parent="WIyWlLk6GJQsqaUBKTNV-1">
          <mxGeometry x="590" y="360" width="80" height="60" as="geometry" />
        </mxCell>
        <mxCell id="6gv_Ad_W1AmOkQpmVhaD-19" style="edgeStyle=orthogonalEdgeStyle;rounded=0;orthogonalLoop=1;jettySize=auto;html=1;exitX=1;exitY=0.5;exitDx=0;exitDy=0;entryX=0.5;entryY=0;entryDx=0;entryDy=0;" edge="1" parent="WIyWlLk6GJQsqaUBKTNV-1" source="6gv_Ad_W1AmOkQpmVhaD-17" target="6gv_Ad_W1AmOkQpmVhaD-15">
          <mxGeometry relative="1" as="geometry" />
        </mxCell>
        <mxCell id="6gv_Ad_W1AmOkQpmVhaD-17" value="Kaldınız" style="shape=document;whiteSpace=wrap;html=1;boundedLbl=1;" vertex="1" parent="WIyWlLk6GJQsqaUBKTNV-1">
          <mxGeometry x="445" y="270" width="100" height="50" as="geometry" />
        </mxCell>
      </root>
    </mxGraphModel>
  </diagram>
</mxfile>
